<svg id="visual" viewBox="0 0 900 600" width="900" height="600" xmlns="http://www.w3.org/2000/svg" xmlns:xlink="http://www.w3.org/1999/xlink" version="1.1"><path d="M0 93L21.5 105.5C43 118 86 143 128.8 148.5C171.7 154 214.3 140 257.2 135.3C300 130.7 343 135.3 385.8 135.8C428.7 136.3 471.3 132.7 514.2 136C557 139.3 600 149.7 642.8 163.8C685.7 178 728.3 196 771.2 195.5C814 195 857 176 878.5 166.5L900 157L900 0L878.5 0C857 0 814 0 771.2 0C728.3 0 685.7 0 642.8 0C600 0 557 0 514.2 0C471.3 0 428.7 0 385.8 0C343 0 300 0 257.2 0C214.3 0 171.7 0 128.8 0C86 0 43 0 21.5 0L0 0Z" fill="#0F2027" stroke-linecap="round" stroke-linejoin="miter"></path></svg>